<svg width="48" height="48" viewBox="0 0 48 48" fill="none" xmlns="http://www.w3.org/2000/svg">
<mask id="mask0_408_576" style="mask-type:alpha" maskUnits="userSpaceOnUse" x="0" y="0" width="48" height="48">
<circle cx="24" cy="24" r="24" fill="#D9D9D9"/>
</mask>
<g mask="url(#mask0_408_576)">
<path d="M27.5505 44.1025C38.7199 42.133 46.1956 31.5284 44.2346 20.407C42.2737 9.28569 31.6217 1.87748 20.4523 3.84694C9.28294 5.81641 1.80718 16.421 3.76818 27.5424C5.72917 38.6637 16.3811 46.0719 27.5505 44.1025Z" fill="#333333" stroke="#FAFAFA" stroke-width="2"/>
<path d="M18.9832 47.3724L12.9181 45.1752L15.064 34.5181L19.4618 22.3795L28.5595 25.6754L24.1616 37.814L18.9832 47.3724Z" fill="#333333"/>
<path d="M27.0432 25.1261L24.0106 24.0274L20.9781 22.9288L19.4618 22.3795L28.5595 25.6754L27.0432 25.1261Z" fill="#333333"/>
<path d="M19.4618 22.3795L28.5595 25.6754M19.4618 22.3795L20.9781 22.9288L24.0106 24.0274L27.0432 25.1261L28.5595 25.6754M19.4618 22.3795L15.064 34.5181L12.9181 45.1752L18.9832 47.3724L24.1616 37.814L28.5595 25.6754" stroke="#FAFAFA" stroke-width="2"/>
<path d="M29.0381 0.682434L35.1032 2.8797L32.9574 13.5368L28.5595 25.6754L19.4619 22.3795L23.8598 10.2409L29.0381 0.682434Z" fill="#333333"/>
<path d="M20.9782 22.9288L24.0107 24.0274L27.0433 25.1261L28.5595 25.6754L19.4619 22.3795L20.9782 22.9288Z" fill="#333333"/>
<path d="M28.5595 25.6754L19.4619 22.3795M28.5595 25.6754L27.0433 25.1261L24.0107 24.0274L20.9782 22.9288L19.4619 22.3795M28.5595 25.6754L32.9574 13.5368L35.1032 2.8797L29.0381 0.682434L23.8598 10.2409L19.4619 22.3795" stroke="#FAFAFA" stroke-width="2"/>
<path d="M7.98448 41.8258L3.83059 36.8904L11.0175 28.734L20.8954 20.4206L27.1263 27.8237L17.2483 36.1371L7.98448 41.8258Z" fill="#333333"/>
<path d="M26.0878 26.5899L24.0108 24.1221L21.9339 21.6544L20.8954 20.4206L27.1263 27.8237L26.0878 26.5899Z" fill="#333333"/>
<path d="M20.8954 20.4206L27.1263 27.8237M20.8954 20.4206L21.9339 21.6544L24.0108 24.1221L26.0878 26.5899L27.1263 27.8237M20.8954 20.4206L11.0175 28.734L3.83059 36.8904L7.98448 41.8258L17.2483 36.1371L27.1263 27.8237" stroke="#FAFAFA" stroke-width="2"/>
<path d="M40.0371 6.41846L44.191 11.3539L37.0041 19.5103L27.1262 27.8237L20.8954 20.4205L30.7733 12.1072L40.0371 6.41846Z" fill="#333333"/>
<path d="M21.9338 21.6544L24.0108 24.1221L26.0877 26.5898L27.1262 27.8237L20.8954 20.4205L21.9338 21.6544Z" fill="#333333"/>
<path d="M27.1262 27.8237L20.8954 20.4205M27.1262 27.8237L26.0877 26.5898L24.0108 24.1221L21.9338 21.6544L20.8954 20.4205M27.1262 27.8237L37.0041 19.5103L44.191 11.3539L40.0371 6.41846L30.7733 12.1072L20.8954 20.4205" stroke="#FAFAFA" stroke-width="2"/>
<path d="M1.27972 31.3461L0.150063 24.9949L10.4523 21.5247L23.1635 19.2641L24.858 28.7908L12.1468 31.0514L1.27972 31.3461Z" fill="#333333"/>
<path d="M24.5756 27.203L24.0108 24.0274L23.446 20.8519L23.1635 19.2641L24.858 28.7908L24.5756 27.203Z" fill="#333333"/>
<path d="M23.1635 19.2641L24.858 28.7908M23.1635 19.2641L23.446 20.8519L24.0108 24.0274L24.5756 27.203L24.858 28.7908M23.1635 19.2641L10.4523 21.5247L0.150063 24.9949L1.27972 31.3461L12.1468 31.0514L24.858 28.7908" stroke="#FAFAFA" stroke-width="2"/>
<path d="M46.7418 16.7088L47.8714 23.0599L37.5692 26.5302L24.8579 28.7908L23.1635 19.2641L35.8747 17.0034L46.7418 16.7088Z" fill="#333333"/>
<path d="M23.4459 20.8519L24.0107 24.0274L24.5755 27.203L24.8579 28.7908L23.1635 19.2641L23.4459 20.8519Z" fill="#333333"/>
<path d="M24.8579 28.7908L23.1635 19.2641M24.8579 28.7908L24.5755 27.203L24.0107 24.0274L23.4459 20.8519L23.1635 19.2641M24.8579 28.7908L37.5692 26.5302L47.8714 23.0599L46.7418 16.7088L35.8747 17.0034L23.1635 19.2641" stroke="#FAFAFA" stroke-width="2"/>
<path d="M0.665772 19.0001L2.86304 12.935L13.5201 15.0808L25.6587 19.4786L22.3628 28.5763L10.2242 24.1784L0.665772 19.0001Z" fill="#333333"/>
<path d="M22.9121 27.06L24.0108 24.0275L25.1094 20.9949L25.6587 19.4786L22.3628 28.5763L22.9121 27.06Z" fill="#333333"/>
<path d="M25.6587 19.4786L22.3628 28.5763M25.6587 19.4786L25.1094 20.9949L24.0108 24.0275L22.9121 27.06L22.3628 28.5763M25.6587 19.4786L13.5201 15.0808L2.86304 12.935L0.665772 19.0001L10.2242 24.1784L22.3628 28.5763" stroke="#FAFAFA" stroke-width="2"/>
<path d="M47.3558 29.0548L45.1586 35.1199L34.5015 32.9741L22.3629 28.5763L25.6588 19.4786L37.7974 23.8765L47.3558 29.0548Z" fill="#333333"/>
<path d="M25.1095 20.9949L24.0108 24.0274L22.9122 27.06L22.3629 28.5763L25.6588 19.4786L25.1095 20.9949Z" fill="#333333"/>
<path d="M22.3629 28.5763L25.6588 19.4786M22.3629 28.5763L22.9122 27.06L24.0108 24.0274L25.1095 20.9949L25.6588 19.4786M22.3629 28.5763L34.5015 32.9741L45.1586 35.1199L47.3558 29.0548L37.7974 23.8765L25.6588 19.4786" stroke="#FAFAFA" stroke-width="2"/>
<path d="M6.3071 8.00111L11.2425 3.84722L19.3989 11.0341L27.7123 20.9121L20.3092 27.1429L11.9958 17.2649L6.3071 8.00111Z" fill="#333333"/>
<path d="M21.5431 26.1044L24.0108 24.0275L26.4785 21.9505L27.7123 20.9121L20.3092 27.1429L21.5431 26.1044Z" fill="#333333"/>
<path d="M27.7123 20.9121L20.3092 27.1429M27.7123 20.9121L26.4785 21.9505L24.0108 24.0275L21.5431 26.1044L20.3092 27.1429M27.7123 20.9121L19.3989 11.0341L11.2425 3.84722L6.3071 8.00111L11.9958 17.2649L20.3092 27.1429" stroke="#FAFAFA" stroke-width="2"/>
<path d="M41.7144 40.0538L36.779 44.2077L28.6225 37.0208L20.3091 27.1429L27.7123 20.912L36.0257 30.79L41.7144 40.0538Z" fill="#333333"/>
<path d="M26.4784 21.9505L24.0107 24.0275L21.543 26.1044L20.3091 27.1429L27.7123 20.912L26.4784 21.9505Z" fill="#333333"/>
<path d="M20.3091 27.1429L27.7123 20.912M20.3091 27.1429L21.543 26.1044L24.0107 24.0275L26.4784 21.9505L27.7123 20.912M20.3091 27.1429L28.6225 37.0208L36.779 44.2077L41.7144 40.0538L36.0257 30.79L27.7123 20.912" stroke="#FAFAFA" stroke-width="2"/>
<path d="M16.6922 1.29638L23.0433 0.166725L26.5135 10.469L28.7742 23.1802L19.2474 24.8747L16.9868 12.1634L16.6922 1.29638Z" fill="#333333"/>
<path d="M20.8352 24.5923L24.0108 24.0274L27.1864 23.4626L28.7742 23.1802L19.2474 24.8747L20.8352 24.5923Z" fill="#333333"/>
<path d="M28.7742 23.1802L19.2474 24.8747M28.7742 23.1802L27.1864 23.4626L24.0108 24.0274L20.8352 24.5923L19.2474 24.8747M28.7742 23.1802L26.5135 10.469L23.0433 0.166725L16.6922 1.29638L16.9868 12.1634L19.2474 24.8747" stroke="#FAFAFA" stroke-width="2"/>
<path d="M31.3294 46.7585L24.9783 47.8882L21.5081 37.5859L19.2474 24.8747L28.7742 23.1802L31.0348 35.8915L31.3294 46.7585Z" fill="#333333"/>
<path d="M27.1864 23.4626L24.0108 24.0275L20.8352 24.5923L19.2474 24.8747L28.7742 23.1802L27.1864 23.4626Z" fill="#333333"/>
<path d="M19.2474 24.8747L28.7742 23.1802M19.2474 24.8747L20.8352 24.5923L24.0108 24.0275L27.1864 23.4626L28.7742 23.1802M19.2474 24.8747L21.5081 37.5859L24.9783 47.8882L31.3294 46.7585L31.0348 35.8915L28.7742 23.1802" stroke="#FAFAFA" stroke-width="2"/>
<ellipse cx="24.0014" cy="23.9747" rx="19.5454" ry="19.4383" transform="rotate(-10 24.0014 23.9747)" fill="#333333"/>
<mask id="mask1_408_576" style="mask-type:alpha" maskUnits="userSpaceOnUse" x="16" y="10" width="32" height="33">
<circle cx="31.9053" cy="26.6035" r="15.9053" fill="#D9D9D9"/>
</mask>
<g mask="url(#mask1_408_576)">
<mask id="mask2_408_576" style="mask-type:alpha" maskUnits="userSpaceOnUse" x="11" y="6" width="49" height="49">
<path d="M57.1117 41.7244C54.413 46.7998 49.992 50.7458 44.6437 52.8525C39.2953 54.9593 33.3708 55.0886 27.9357 53.2171C22.5006 51.3457 17.9116 47.5963 14.9941 42.6434C12.0766 37.6905 11.0222 31.8591 12.0203 26.1982C13.0185 20.5372 16.0038 15.4182 20.4394 11.7618C24.8749 8.10546 30.4695 6.15174 36.2169 6.25206C41.9643 6.35238 47.4873 8.50017 51.7926 12.3091C56.0978 16.118 58.9026 21.3381 59.7026 27.0305L35.7956 30.3904L57.1117 41.7244Z" fill="#6F7AE1"/>
</mask>
<g mask="url(#mask2_408_576)">
<path d="M24.7428 40.6499L21.1969 38.1748L24.373 31.7397L29.2518 24.7548L34.5706 28.4674L29.6918 35.4523L24.7428 40.6499Z" fill="#FAFAFA"/>
<path d="M33.6841 27.8486L31.9112 26.6111L30.1382 25.3735L29.2518 24.7548L34.5706 28.4674L33.6841 27.8486Z" fill="#FAFAFA"/>
<path d="M29.2518 24.7548L34.5706 28.4674M29.2518 24.7548L30.1382 25.3735L31.9112 26.6111L33.6841 27.8486L34.5706 28.4674M29.2518 24.7548L24.373 31.7397L21.1969 38.1748L24.7428 40.6499L29.6918 35.4523L34.5706 28.4674" stroke="#FAFAFA"/>
<path d="M39.0795 12.5723L42.6254 15.0474L39.4493 21.4825L34.5705 28.4674L29.2517 24.7548L34.1304 17.7699L39.0795 12.5723Z" fill="#FAFAFA"/>
<path d="M30.1382 25.3736L31.9111 26.6111L33.684 27.8487L34.5705 28.4674L29.2517 24.7548L30.1382 25.3736Z" fill="#FAFAFA"/>
<path d="M34.5705 28.4674L29.2517 24.7548M34.5705 28.4674L33.684 27.8487L31.9111 26.6111L30.1382 25.3736L29.2517 24.7548M34.5705 28.4674L39.4493 21.4825L42.6254 15.0474L39.0795 12.5723L34.1304 17.7699L29.2517 24.7548" stroke="#FAFAFA"/>
<path d="M18.662 35.2295L16.8288 31.3131L22.7969 27.3281L30.5145 23.7184L33.2644 29.5931L25.5468 33.2028L18.662 35.2295Z" fill="#FAFAFA"/>
<path d="M32.8061 28.6139L31.8894 26.6557L30.9728 24.6975L30.5145 23.7184L33.2644 29.5931L32.8061 28.6139Z" fill="#FAFAFA"/>
<path d="M30.5145 23.7184L33.2644 29.5931M30.5145 23.7184L30.9728 24.6975L31.8894 26.6557L32.8061 28.6139L33.2644 29.5931M30.5145 23.7184L22.7969 27.3281L16.8288 31.3131L18.662 35.2295L25.5468 33.2028L33.2644 29.5931" stroke="#FAFAFA"/>
<path d="M45.1168 18.082L46.95 21.9984L40.9819 25.9833L33.2643 29.5931L30.5144 23.7184L38.232 20.1087L45.1168 18.082Z" fill="#FAFAFA"/>
<path d="M30.9727 24.6975L31.8894 26.6557L32.806 28.614L33.2643 29.5931L30.5144 23.7184L30.9727 24.6975Z" fill="#FAFAFA"/>
<path d="M33.2643 29.5931L30.5144 23.7184M33.2643 29.5931L32.806 28.614L31.8894 26.6557L30.9727 24.6975L30.5144 23.7184M33.2643 29.5931L40.9819 25.9833L46.95 21.9984L45.1168 18.082L38.232 20.1087L30.5144 23.7184" stroke="#FAFAFA"/>
<path d="M16.1476 27.3779L16.5181 23.0695L23.6791 22.6025L32.1676 23.3352L31.6118 29.7978L23.1233 29.0651L16.1476 27.3779Z" fill="#FAFAFA"/>
<path d="M31.7044 28.7207L31.8897 26.5665L32.075 24.4123L32.1676 23.3352L31.6118 29.7978L31.7044 28.7207Z" fill="#FAFAFA"/>
<path d="M32.1676 23.3352L31.6118 29.7978M32.1676 23.3352L32.075 24.4123L31.8897 26.5665L31.7044 28.7207L31.6118 29.7978M32.1676 23.3352L23.6791 22.6025L16.5181 23.0695L16.1476 27.3779L23.1233 29.0651L31.6118 29.7978" stroke="#FAFAFA"/>
<path d="M47.6318 25.7551L47.2613 30.0635L40.1003 30.5305L31.6118 29.7978L32.1676 23.3352L40.6561 24.0679L47.6318 25.7551Z" fill="#FAFAFA"/>
<path d="M32.075 24.4123L31.8897 26.5665L31.7044 28.7207L31.6118 29.7978L32.1676 23.3352L32.075 24.4123Z" fill="#FAFAFA"/>
<path d="M31.6118 29.7978L32.1676 23.3352M31.6118 29.7978L31.7044 28.7207L31.8897 26.5665L32.075 24.4123L32.1676 23.3352M31.6118 29.7978L40.1003 30.5305L47.2613 30.0635L47.6318 25.7551L40.6561 24.0679L32.1676 23.3352" stroke="#FAFAFA"/>
<path d="M17.8121 19.4338L20.2872 15.8879L26.7224 19.064L33.7073 23.9427L29.9946 29.2616L23.0097 24.3828L17.8121 19.4338Z" fill="#FAFAFA"/>
<path d="M30.6134 28.3751L31.8509 26.6021L33.0885 24.8292L33.7073 23.9427L29.9946 29.2616L30.6134 28.3751Z" fill="#FAFAFA"/>
<path d="M33.7073 23.9427L29.9946 29.2616M33.7073 23.9427L33.0885 24.8292L31.8509 26.6021L30.6134 28.3751L29.9946 29.2616M33.7073 23.9427L26.7224 19.064L20.2872 15.8879L17.8121 19.4338L23.0097 24.3828L29.9946 29.2616" stroke="#FAFAFA"/>
<path d="M45.8898 33.7705L43.4147 37.3164L36.9796 34.1404L29.9946 29.2616L33.7073 23.9427L40.6922 28.8215L45.8898 33.7705Z" fill="#FAFAFA"/>
<path d="M33.0885 24.8292L31.851 26.6022L30.6134 28.3751L29.9946 29.2616L33.7073 23.9427L33.0885 24.8292Z" fill="#FAFAFA"/>
<path d="M29.9946 29.2616L33.7073 23.9427M29.9946 29.2616L30.6134 28.3751L31.851 26.6022L33.0885 24.8292L33.7073 23.9427M29.9946 29.2616L36.9796 34.1404L43.4147 37.3164L45.8898 33.7705L40.6922 28.8215L33.7073 23.9427" stroke="#FAFAFA"/>
<path d="M23.3387 13.3622L27.2552 11.529L31.2401 17.4971L34.8499 25.2147L28.9752 27.9646L25.3654 20.247L23.3387 13.3622Z" fill="#FAFAFA"/>
<path d="M29.9543 27.5063L31.9125 26.5896L33.8707 25.673L34.8499 25.2147L28.9752 27.9646L29.9543 27.5063Z" fill="#FAFAFA"/>
<path d="M34.8499 25.2147L28.9752 27.9646M34.8499 25.2147L33.8707 25.673L31.9125 26.5896L29.9543 27.5063L28.9752 27.9646M34.8499 25.2147L31.2401 17.4971L27.2552 11.529L23.3387 13.3622L25.3654 20.247L28.9752 27.9646" stroke="#FAFAFA"/>
<path d="M40.4863 39.817L36.5699 41.6503L32.585 35.6822L28.9752 27.9646L34.8499 25.2147L38.4596 32.9323L40.4863 39.817Z" fill="#FAFAFA"/>
<path d="M33.8708 25.673L31.9126 26.5896L29.9543 27.5063L28.9752 27.9646L34.8499 25.2147L33.8708 25.673Z" fill="#FAFAFA"/>
<path d="M28.9752 27.9646L34.8499 25.2147M28.9752 27.9646L29.9543 27.5063L31.9126 26.5896L33.8708 25.673L34.8499 25.2147M28.9752 27.9646L32.585 35.6822L36.5699 41.6503L40.4863 39.817L38.4596 32.9323L34.8499 25.2147" stroke="#FAFAFA"/>
<path d="M31.0841 10.8385L35.3924 11.209L35.8594 18.37L35.1268 26.8585L28.6642 26.3027L29.3969 17.8142L31.0841 10.8385Z" fill="#FAFAFA"/>
<path d="M29.7413 26.3953L31.8955 26.5806L34.0497 26.7659L35.1268 26.8585L28.6642 26.3027L29.7413 26.3953Z" fill="#FAFAFA"/>
<path d="M35.1268 26.8585L28.6642 26.3027M35.1268 26.8585L34.0497 26.7659L31.8955 26.5806L29.7413 26.3953L28.6642 26.3027M35.1268 26.8585L35.8594 18.37L35.3924 11.209L31.0841 10.8385L29.3969 17.8142L28.6642 26.3027" stroke="#FAFAFA"/>
<path d="M32.707 42.3228L28.3986 41.9522L27.9316 34.7912L28.6643 26.3027L35.1268 26.8585L34.3942 35.347L32.707 42.3228Z" fill="#FAFAFA"/>
<path d="M34.0497 26.7659L31.8955 26.5806L29.7414 26.3953L28.6643 26.3027L35.1268 26.8585L34.0497 26.7659Z" fill="#FAFAFA"/>
<path d="M28.6643 26.3027L35.1268 26.8585M28.6643 26.3027L29.7414 26.3953L31.8955 26.5806L34.0497 26.7659L35.1268 26.8585M28.6643 26.3027L27.9316 34.7912L28.3986 41.9522L32.707 42.3228L34.3942 35.347L35.1268 26.8585" stroke="#FAFAFA"/>
<ellipse cx="13.1021" cy="12.8278" rx="13.1021" ry="12.8278" transform="matrix(0.996195 0.0871558 -0.087484 0.996166 20.0219 12.7406)" fill="#FAFAFA"/>
</g>
<path d="M38.3026 22.9499C38.3026 24.7652 36.831 26.2368 35.0156 26.2368C33.2003 26.2368 31.7286 24.7652 31.7286 22.9499C31.7286 21.1345 33.2003 19.6629 35.0156 19.6629C36.831 19.6629 38.3026 21.1345 38.3026 22.9499Z" fill="#333333" stroke="#FAFAFA"/>
<path d="M37.2336 22.5372C37.4061 23.5155 36.9198 24.4191 36.1474 24.5553C35.375 24.6915 34.609 24.0087 34.4365 23.0304C34.264 22.052 34.7503 21.1485 35.5227 21.0123C36.2951 20.8761 37.0611 21.5588 37.2336 22.5372Z" fill="#FAFAFA"/>
</g>
</g>
</svg>
