<svg width="600" height="600" viewBox="0 0 600 600" fill="none" xmlns="http://www.w3.org/2000/svg">
<mask id="mask0_121_1212" style="mask-type:alpha" maskUnits="userSpaceOnUse" x="75" y="75" width="450" height="450">
<circle cx="300" cy="300" r="225" fill="#D9D9D9"/>
</mask>
<g mask="url(#mask0_121_1212)">
<path d="M331.832 480.213C432.033 462.545 499.026 367.435 481.453 267.77C463.879 168.105 368.397 101.645 268.196 119.313C167.995 136.981 101.002 232.091 118.575 331.755C136.149 431.42 231.631 497.881 331.832 480.213Z" fill="#333333" stroke="#FAFAFA" stroke-width="2"/>
<path d="M252.969 519.117L196.109 498.517L216.226 398.607L257.456 284.808L342.746 315.707L301.516 429.506L252.969 519.117Z" fill="#333333"/>
<path d="M328.531 310.557L300.101 300.257L271.671 289.958L257.456 284.808L342.746 315.707L328.531 310.557Z" fill="#333333"/>
<path d="M257.456 284.808L342.746 315.707M257.456 284.808L271.671 289.958L300.101 300.257L328.531 310.557L342.746 315.707M257.456 284.808L216.226 398.607L196.109 498.517L252.969 519.117L301.516 429.506L342.746 315.707" stroke="#FAFAFA" stroke-width="2"/>
<path d="M347.233 81.3979L404.093 101.997L383.976 201.908L342.746 315.707L257.456 284.808L298.686 171.009L347.233 81.3979Z" fill="#333333"/>
<path d="M271.671 289.958L300.101 300.257L328.531 310.557L342.746 315.707L257.456 284.808L271.671 289.958Z" fill="#333333"/>
<path d="M342.746 315.707L257.456 284.808M342.746 315.707L328.531 310.557L300.101 300.257L271.671 289.958L257.456 284.808M342.746 315.707L383.976 201.908L404.093 101.997L347.233 81.3979L298.686 171.009L257.456 284.808" stroke="#FAFAFA" stroke-width="2"/>
<path d="M149.854 467.117L110.911 420.847L178.288 344.381L270.894 266.443L329.308 335.847L236.703 413.785L149.854 467.117Z" fill="#333333"/>
<path d="M319.573 324.28L300.101 301.145L280.63 278.01L270.894 266.443L329.308 335.847L319.573 324.28Z" fill="#333333"/>
<path d="M270.894 266.443L329.308 335.847M270.894 266.443L280.63 278.01L300.101 301.145L319.573 324.28L329.308 335.847M270.894 266.443L178.288 344.381L110.911 420.847L149.854 467.117L236.703 413.785L329.308 335.847" stroke="#FAFAFA" stroke-width="2"/>
<path d="M450.348 135.173L489.291 181.443L421.914 257.909L329.308 335.847L270.894 266.443L363.5 188.505L450.348 135.173Z" fill="#333333"/>
<path d="M280.63 278.01L300.101 301.145L319.573 324.28L329.308 335.847L270.894 266.443L280.63 278.01Z" fill="#333333"/>
<path d="M329.308 335.847L270.894 266.443M329.308 335.847L319.573 324.28L300.101 301.145L280.63 278.01L270.894 266.443M329.308 335.847L421.914 257.909L489.291 181.443L450.348 135.173L363.5 188.505L270.894 266.443" stroke="#FAFAFA" stroke-width="2"/>
<path d="M86.9974 368.87L76.4069 309.327L172.99 276.794L292.158 255.601L308.044 344.914L188.876 366.107L86.9974 368.87Z" fill="#333333"/>
<path d="M305.396 330.028L300.101 300.257L294.806 270.486L292.158 255.601L308.044 344.914L305.396 330.028Z" fill="#333333"/>
<path d="M292.158 255.601L308.044 344.914M292.158 255.601L294.806 270.486L300.101 300.257L305.396 330.028L308.044 344.914M292.158 255.601L172.99 276.794L76.4069 309.327L86.9974 368.87L188.876 366.107L308.044 344.914" stroke="#FAFAFA" stroke-width="2"/>
<path d="M513.205 231.645L523.795 291.187L427.212 323.72L308.044 344.914L292.158 255.601L411.326 234.407L513.205 231.645Z" fill="#333333"/>
<path d="M294.806 270.486L300.101 300.257L305.396 330.028L308.044 344.914L292.158 255.601L294.806 270.486Z" fill="#333333"/>
<path d="M308.044 344.914L292.158 255.601M308.044 344.914L305.396 330.028L300.101 300.257L294.806 270.486L292.158 255.601M308.044 344.914L427.212 323.72L523.795 291.187L513.205 231.645L411.326 234.407L292.158 255.601" stroke="#FAFAFA" stroke-width="2"/>
<path d="M81.2418 253.125L101.841 196.265L201.752 216.382L315.551 257.612L284.652 342.903L170.852 301.673L81.2418 253.125Z" fill="#333333"/>
<path d="M289.801 328.687L300.101 300.257L310.401 271.827L315.551 257.612L284.652 342.903L289.801 328.687Z" fill="#333333"/>
<path d="M315.551 257.612L284.652 342.903M315.551 257.612L310.401 271.827L300.101 300.257L289.801 328.687L284.652 342.903M315.551 257.612L201.752 216.382L101.841 196.265L81.2418 253.125L170.852 301.673L284.652 342.903" stroke="#FAFAFA" stroke-width="2"/>
<path d="M518.961 347.389L498.361 404.249L398.451 384.132L284.652 342.902L315.551 257.612L429.35 298.842L518.961 347.389Z" fill="#333333"/>
<path d="M310.401 271.827L300.101 300.257L289.801 328.687L284.652 342.902L315.551 257.612L310.401 271.827Z" fill="#333333"/>
<path d="M284.652 342.902L315.551 257.612M284.652 342.902L289.801 328.687L300.101 300.257L310.401 271.827L315.551 257.612M284.652 342.902L398.451 384.132L498.361 404.249L518.961 347.389L429.35 298.842L315.551 257.612" stroke="#FAFAFA" stroke-width="2"/>
<path d="M134.129 150.01L180.399 111.067L256.865 178.445L334.803 271.05L265.399 329.464L187.461 236.859L134.129 150.01Z" fill="#333333"/>
<path d="M276.966 319.729L300.101 300.257L323.236 280.786L334.803 271.05L265.399 329.464L276.966 319.729Z" fill="#333333"/>
<path d="M334.803 271.05L265.399 329.464M334.803 271.05L323.236 280.786L300.101 300.257L276.966 319.729L265.399 329.464M334.803 271.05L256.865 178.445L180.399 111.067L134.129 150.01L187.461 236.859L265.399 329.464" stroke="#FAFAFA" stroke-width="2"/>
<path d="M466.073 450.504L419.803 489.447L343.337 422.07L265.399 329.464L334.803 271.05L412.742 363.656L466.073 450.504Z" fill="#333333"/>
<path d="M323.236 280.786L300.101 300.257L276.966 319.729L265.399 329.464L334.803 271.05L323.236 280.786Z" fill="#333333"/>
<path d="M265.399 329.464L334.803 271.05M265.399 329.464L276.966 319.729L300.101 300.257L323.236 280.786L334.803 271.05M265.399 329.464L343.337 422.07L419.803 489.447L466.073 450.504L412.742 363.656L334.803 271.05" stroke="#FAFAFA" stroke-width="2"/>
<path d="M231.489 87.1536L291.031 76.563L323.564 173.146L344.758 292.314L255.445 308.2L234.251 189.032L231.489 87.1536Z" fill="#333333"/>
<path d="M270.33 305.553L300.101 300.257L329.872 294.962L344.758 292.314L255.445 308.2L270.33 305.553Z" fill="#333333"/>
<path d="M344.758 292.314L255.445 308.2M344.758 292.314L329.872 294.962L300.101 300.257L270.33 305.553L255.445 308.2M344.758 292.314L323.564 173.146L291.031 76.563L231.489 87.1536L234.251 189.032L255.445 308.2" stroke="#FAFAFA" stroke-width="2"/>
<path d="M368.713 513.361L309.171 523.952L276.638 427.368L255.445 308.2L344.758 292.314L365.951 411.482L368.713 513.361Z" fill="#333333"/>
<path d="M329.872 294.962L300.101 300.257L270.33 305.553L255.445 308.2L344.758 292.314L329.872 294.962Z" fill="#333333"/>
<path d="M255.445 308.2L344.758 292.314M255.445 308.2L270.33 305.553L300.101 300.257L329.872 294.962L344.758 292.314M255.445 308.2L276.638 427.368L309.171 523.952L368.713 513.361L365.951 411.482L344.758 292.314" stroke="#FAFAFA" stroke-width="2"/>
<ellipse cx="300.014" cy="299.763" rx="183.238" ry="182.234" transform="rotate(-10 300.014 299.763)" fill="#333333"/>
<mask id="mask1_121_1212" style="mask-type:alpha" maskUnits="userSpaceOnUse" x="225" y="175" width="299" height="299">
<circle cx="374.112" cy="324.408" r="149.112" fill="#D9D9D9"/>
</mask>
<g mask="url(#mask1_121_1212)">
<mask id="mask2_121_1212" style="mask-type:alpha" maskUnits="userSpaceOnUse" x="184" y="133" width="451" height="454">
<path d="M610.422 466.166C585.122 513.748 543.675 550.742 493.534 570.493C443.394 590.244 387.852 591.456 336.897 573.911C285.943 556.366 242.921 521.215 215.57 474.782C188.219 428.349 178.333 373.68 187.691 320.608C197.049 267.537 225.036 219.546 266.619 185.267C308.202 150.989 360.652 132.673 414.534 133.613C468.416 134.554 520.194 154.689 560.555 190.398C600.917 226.107 627.212 275.045 634.712 328.411L410.584 359.91L610.422 466.166Z" fill="#6F7AE1"/>
</mask>
<g mask="url(#mask2_121_1212)">
<path d="M306.965 456.093L273.722 432.889L303.498 372.56L349.236 307.076L399.1 341.882L353.362 407.366L306.965 456.093Z" fill="#FAFAFA"/>
<path d="M390.79 336.081L374.168 324.479L357.547 312.877L349.236 307.076L399.1 341.882L390.79 336.081Z" fill="#FAFAFA"/>
<path d="M349.236 307.076L399.1 341.882M349.236 307.076L357.547 312.877L374.168 324.479L390.79 336.081L399.1 341.882M349.236 307.076L303.498 372.56L273.722 432.889L306.965 456.093L353.362 407.366L399.1 341.882" stroke="#FAFAFA"/>
<path d="M441.372 192.865L474.614 216.07L444.839 276.399L399.1 341.882L349.236 307.076L394.975 241.593L441.372 192.865Z" fill="#FAFAFA"/>
<path d="M357.547 312.877L374.168 324.479L390.79 336.081L399.1 341.882L349.236 307.076L357.547 312.877Z" fill="#FAFAFA"/>
<path d="M399.1 341.882L349.236 307.076M399.1 341.882L390.79 336.081L374.168 324.479L357.547 312.877L349.236 307.076M399.1 341.882L444.839 276.399L474.614 216.07L441.372 192.865L394.975 241.593L349.236 307.076" stroke="#FAFAFA"/>
<path d="M249.957 405.277L232.77 368.56L288.721 331.201L361.074 297.36L386.854 352.435L314.502 386.276L249.957 405.277Z" fill="#FAFAFA"/>
<path d="M382.558 343.256L373.964 324.898L365.371 306.539L361.074 297.36L386.854 352.435L382.558 343.256Z" fill="#FAFAFA"/>
<path d="M361.074 297.36L386.854 352.435M361.074 297.36L365.371 306.539L373.964 324.898L382.558 343.256L386.854 352.435M361.074 297.36L288.721 331.201L232.77 368.56L249.957 405.277L314.502 386.276L386.854 352.435" stroke="#FAFAFA"/>
<path d="M497.971 244.518L515.158 281.235L459.207 318.594L386.854 352.435L361.074 297.36L433.426 263.519L497.971 244.518Z" fill="#FAFAFA"/>
<path d="M365.371 306.539L373.964 324.898L382.558 343.256L386.854 352.435L361.074 297.36L365.371 306.539Z" fill="#FAFAFA"/>
<path d="M386.854 352.435L361.074 297.36M386.854 352.435L382.558 343.256L373.964 324.898L365.371 306.539L361.074 297.36M386.854 352.435L459.207 318.594L515.158 281.235L497.971 244.518L433.426 263.519L361.074 297.36" stroke="#FAFAFA"/>
<path d="M226.384 331.668L229.858 291.277L296.992 286.899L376.572 293.768L371.361 354.355L291.781 347.486L226.384 331.668Z" fill="#FAFAFA"/>
<path d="M372.229 344.257L373.966 324.061L375.703 303.866L376.572 293.768L371.361 354.355L372.229 344.257Z" fill="#FAFAFA"/>
<path d="M376.572 293.768L371.361 354.355M376.572 293.768L375.703 303.866L373.966 324.061L372.229 344.257L371.361 354.355M376.572 293.768L296.992 286.899L229.858 291.277L226.384 331.668L291.781 347.486L371.361 354.355" stroke="#FAFAFA"/>
<path d="M521.549 316.454L518.075 356.845L450.941 361.223L371.361 354.355L376.572 293.768L456.152 300.637L521.549 316.454Z" fill="#FAFAFA"/>
<path d="M375.703 303.866L373.966 324.061L372.229 344.257L371.361 354.355L376.572 293.768L375.703 303.866Z" fill="#FAFAFA"/>
<path d="M371.361 354.355L376.572 293.768M371.361 354.355L372.229 344.257L373.966 324.061L375.703 303.866L376.572 293.768M371.361 354.355L450.941 361.223L518.075 356.845L521.549 316.454L456.152 300.637L376.572 293.768" stroke="#FAFAFA"/>
<path d="M241.989 257.192L265.193 223.949L325.522 253.725L391.006 299.463L356.2 349.327L290.716 303.589L241.989 257.192Z" fill="#FAFAFA"/>
<path d="M362.001 341.017L373.603 324.395L385.205 307.774L391.006 299.463L356.2 349.327L362.001 341.017Z" fill="#FAFAFA"/>
<path d="M391.006 299.463L356.2 349.327M391.006 299.463L385.205 307.774L373.603 324.395L362.001 341.017L356.2 349.327M391.006 299.463L325.522 253.725L265.193 223.949L241.989 257.192L290.716 303.589L356.2 349.327" stroke="#FAFAFA"/>
<path d="M505.217 391.599L482.013 424.842L421.684 395.066L356.2 349.327L391.006 299.463L456.49 345.202L505.217 391.599Z" fill="#FAFAFA"/>
<path d="M385.205 307.774L373.603 324.395L362.001 341.017L356.2 349.327L391.006 299.463L385.205 307.774Z" fill="#FAFAFA"/>
<path d="M356.2 349.327L391.006 299.463M356.2 349.327L362.001 341.017L373.603 324.395L385.205 307.774L391.006 299.463M356.2 349.327L421.684 395.066L482.013 424.842L505.217 391.599L456.49 345.202L391.006 299.463" stroke="#FAFAFA"/>
<path d="M293.801 200.271L330.518 183.084L367.876 239.035L401.718 311.388L346.643 337.168L312.801 264.816L293.801 200.271Z" fill="#FAFAFA"/>
<path d="M355.822 332.872L374.18 324.278L392.539 315.685L401.718 311.388L346.643 337.168L355.822 332.872Z" fill="#FAFAFA"/>
<path d="M401.718 311.388L346.643 337.168M401.718 311.388L392.539 315.685L374.18 324.278L355.822 332.872L346.643 337.168M401.718 311.388L367.876 239.035L330.518 183.084L293.801 200.271L312.801 264.816L346.643 337.168" stroke="#FAFAFA"/>
<path d="M454.559 448.285L417.843 465.472L380.484 409.521L346.643 337.168L401.718 311.388L435.559 383.74L454.559 448.285Z" fill="#FAFAFA"/>
<path d="M392.538 315.685L374.18 324.278L355.822 332.872L346.643 337.168L401.718 311.388L392.538 315.685Z" fill="#FAFAFA"/>
<path d="M346.643 337.168L401.718 311.388M346.643 337.168L355.822 332.872L374.18 324.278L392.538 315.685L401.718 311.388M346.643 337.168L380.484 409.521L417.843 465.472L454.559 448.285L435.559 383.74L401.718 311.388" stroke="#FAFAFA"/>
<path d="M366.414 176.611L406.805 180.085L411.183 247.219L404.314 326.799L343.727 321.588L350.596 242.008L366.414 176.611Z" fill="#FAFAFA"/>
<path d="M353.825 322.456L374.021 324.193L394.216 325.93L404.314 326.799L343.727 321.588L353.825 322.456Z" fill="#FAFAFA"/>
<path d="M404.314 326.799L343.727 321.588M404.314 326.799L394.216 325.93L374.021 324.193L353.825 322.456L343.727 321.588M404.314 326.799L411.183 247.219L406.805 180.085L366.414 176.611L350.596 242.008L343.727 321.588" stroke="#FAFAFA"/>
<path d="M381.628 471.776L341.237 468.302L336.859 401.168L343.727 321.588L404.314 326.799L397.445 406.378L381.628 471.776Z" fill="#FAFAFA"/>
<path d="M394.216 325.93L374.021 324.193L353.825 322.456L343.727 321.588L404.314 326.799L394.216 325.93Z" fill="#FAFAFA"/>
<path d="M343.727 321.588L404.314 326.799M343.727 321.588L353.825 322.456L374.021 324.193L394.216 325.93L404.314 326.799M343.727 321.588L336.859 401.168L341.237 468.302L381.628 471.776L397.445 406.378L404.314 326.799" stroke="#FAFAFA"/>
<ellipse cx="122.833" cy="120.26" rx="122.833" ry="120.26" transform="matrix(0.996195 0.0871558 -0.087484 0.996166 262.706 194.444)" fill="#FAFAFA"/>
</g>
<path d="M438.274 290.155C438.274 309.486 422.603 325.158 403.271 325.158C383.939 325.158 368.268 309.486 368.268 290.155C368.268 270.823 383.939 255.152 403.271 255.152C422.603 255.152 438.274 270.823 438.274 290.155Z" fill="#333333" stroke="#FAFAFA"/>
<path d="M424.064 286.286C425.681 295.458 421.122 303.929 413.881 305.206C406.64 306.482 399.459 300.082 397.841 290.91C396.224 281.737 400.783 273.267 408.024 271.99C415.266 270.713 422.447 277.114 424.064 286.286Z" fill="#FAFAFA"/>
</g>
</g>
</svg>
