<svg width="55" height="55" viewBox="0 0 55 55" fill="none" xmlns="http://www.w3.org/2000/svg">
<g clip-path="url(#clip0_5003_4)">
<rect width="55" height="55" fill="white"/>
<path d="M45.0312 20.5417H44.7338C43.5119 15.83 38.635 12.2917 32.8125 12.2917H29.0938V11.1183C30.9425 10.55 32.2812 9.03749 32.2812 7.24999C32.2812 4.97666 30.135 3.12499 27.5 3.12499C24.865 3.12499 22.7188 4.97666 22.7188 7.24999C22.7188 9.03749 24.0575 10.55 25.9062 11.1183V12.2917H22.1875C16.365 12.2917 11.4881 15.83 10.2663 20.5417H9.96875C8.21563 20.5417 6.78125 21.7792 6.78125 23.2917V26.0417C6.78125 27.5542 8.21563 28.7917 9.96875 28.7917H10.5531C11.8069 32.165 14.9731 34.7867 18.9469 35.74C18.6494 36.2808 18.4688 36.8675 18.4688 37.5C18.4688 38.2608 19.1806 38.875 20.0625 38.875H34.9375C35.8194 38.875 36.5312 38.2608 36.5312 37.5C36.5312 36.8675 36.3506 36.2717 36.0531 35.74C40.0269 34.7958 43.1931 32.165 44.4469 28.7917H45.0312C46.7844 28.7917 48.2188 27.5542 48.2188 26.0417V23.2917C48.2188 21.7792 46.7844 20.5417 45.0312 20.5417ZM27.5 5.87499C28.3819 5.87499 29.0938 6.48916 29.0938 7.24999C29.0938 8.01082 28.3819 8.62499 27.5 8.62499C26.6181 8.62499 25.9062 8.01082 25.9062 7.24999C25.9062 6.48916 26.6181 5.87499 27.5 5.87499ZM32.8125 33.375H22.1875C17.2044 33.375 13.1562 29.8825 13.1562 25.5833V22.8333C13.1562 18.5342 17.2044 15.0417 22.1875 15.0417H32.8125C37.7956 15.0417 41.8438 18.5342 41.8438 22.8333V25.5833C41.8438 29.8825 37.7956 33.375 32.8125 33.375Z" fill="black"/>
<path d="M21.6562 18.7083C19.9031 18.7083 18.4688 19.9458 18.4688 21.4583V24.2083C18.4688 25.7208 19.9031 26.9583 21.6562 26.9583C23.4094 26.9583 24.8438 25.7208 24.8438 24.2083V21.4583C24.8438 19.9458 23.4094 18.7083 21.6562 18.7083Z" fill="black"/>
<path d="M33.3438 18.7083C31.5906 18.7083 30.1562 19.9458 30.1562 21.4583V24.2083C30.1562 25.7208 31.5906 26.9583 33.3438 26.9583C35.0969 26.9583 36.5312 25.7208 36.5312 24.2083V21.4583C36.5312 19.9458 35.0969 18.7083 33.3438 18.7083Z" fill="black"/>
<path d="M16.3756 5.80166L19.5631 6.71832C19.7331 6.76416 19.9031 6.79166 20.0625 6.79166C20.7319 6.79166 21.3481 6.42499 21.5713 5.84749C21.8475 5.12332 21.4012 4.34416 20.5619 4.10582L17.3744 3.18916C16.5456 2.95082 15.6425 3.33582 15.3556 4.05999C15.0687 4.78416 15.5256 5.56332 16.365 5.80166H16.3756Z" fill="black"/>
<path d="M16.875 11.375C17.045 11.375 17.215 11.3567 17.3744 11.3017L20.5619 10.385C21.4012 10.1467 21.8475 9.36749 21.5713 8.64332C21.295 7.91916 20.3919 7.53416 19.5525 7.77249L16.365 8.68916C15.5256 8.92749 15.0794 9.70666 15.3556 10.4308C15.5787 11.0083 16.195 11.375 16.8644 11.375H16.875Z" fill="black"/>
<path d="M34.9375 6.79166C35.1075 6.79166 35.2775 6.77332 35.4369 6.71832L38.6244 5.80166C39.4638 5.56332 39.91 4.78416 39.6337 4.05999C39.3575 3.33582 38.4544 2.95082 37.615 3.18916L34.4275 4.10582C33.5881 4.34416 33.1419 5.12332 33.4181 5.84749C33.6412 6.42499 34.2575 6.79166 34.9269 6.79166H34.9375Z" fill="black"/>
<path d="M34.4381 10.385L37.6256 11.3017C37.7956 11.3475 37.9656 11.375 38.125 11.375C38.7944 11.375 39.4106 11.0083 39.6337 10.4308C39.91 9.70666 39.4638 8.92749 38.6244 8.68916L35.4369 7.77249C34.6081 7.53416 33.6944 7.91916 33.4181 8.64332C33.1419 9.36749 33.5881 10.1467 34.4275 10.385H34.4381Z" fill="black"/>
<path d="M30.6465 41.5527L31.2927 40H32.4155L33.0616 41.5527L35 42.0702V42.9696L33.0616 43.4872L32.4155 45.0398H31.2927L30.6465 43.4872L28.7081 42.9696V42.0702L30.6465 41.5527Z" fill="black"/>
<path d="M32.8403 46.4699V52H30.8678V46.4699H32.8403Z" fill="black"/>
<path fill-rule="evenodd" clip-rule="evenodd" d="M22.3241 41.7299H25.6038L28.9278 52H26.89L26.123 49.63H21.8048L21.0377 52H19L22.3241 41.7299ZM22.3162 48.05H25.6116L24.0774 43.3099H23.8504L22.3162 48.05Z" fill="black"/>
</g>
<defs>
<clipPath id="clip0_5003_4">
<rect width="55" height="55" fill="white"/>
</clipPath>
</defs>
</svg>
